<?xml version="1.0" encoding="UTF-8"?>
<!-- Uploaded to: SVG Find, www.svgfind.com, Generator: SVG Find Mixer Tools -->
<svg fill="#000000" width="800px" height="800px" version="1.1" viewBox="144 144 512 512" xmlns="http://www.w3.org/2000/svg">
 <path d="m609.8 349.44c-7.582-35.152-37.023-61.738-73.262-66.156l-42.551-5.1875c-12.113-1.4766-22.141-10.496-24.953-22.445-1.5234-6.4609-3.2852-13.277-5.2383-20.258-4.6484-16.617-18.039-29.23-34.945-32.922l-73-15.938c-2-0.43359-4.0391-0.65625-6.0703-0.65625-14.059 0-26.105 10.508-28.016 24.441-1.6094 11.73 0.43359 23.008 6.0742 33.523l60.836 113.35c6.1367 11.438 18.008 18.539 30.98 18.539 2.8789 0 5.7578-0.35938 8.5586-1.0625l112.23-28.141c1.4453-0.36328 2.9258-0.54688 4.3984-0.54688 8.8984 0 16.508 6.5859 17.699 15.32 1.9688 14.457-4.707 18.039-6.8984 19.215l-126.77 68.031-4.6562-9.1719-38.691 19.641-4.8516-1.3945-8.7617 14.09 10.547-5.3516 39.492-20.047 2.375 4.6758-107.3 57.586c-5.0898 2.7305-10.57 4.1172-16.285 4.1172-14.598 0-27.625-9.1836-32.414-22.852-7.8359-22.355-9.5391-40.344-4.9141-52.02l35.672-90.062c6.8516-17.297-1.1562-36.641-18.23-44.035-4.332-1.8789-8.9062-2.8281-13.59-2.8281-13.523 0-25.809 7.9805-31.305 20.336l-42.98 96.617c-7.4844 16.82-6.7812 35.77 1.9258 51.988l36.422 67.863c2.0508 3.8242 2.375 8.1797 0.91016 12.262-1.4648 4.0859-4.4844 7.2461-8.5 8.8906l-20.738 8.5039c-6.3477 2.6016-11.324 7.8047-13.641 14.266-2.3164 6.4609-1.7852 13.637 1.4609 19.684 4.2344 7.9023 12.441 12.809 21.41 12.809 3.9805 0 7.9414-1 11.465-2.8906l362.04-194.3c22.641-12.148 30.957-35.484 24.062-67.48zm-28.938 58.387-362.04 194.3c-6.6562 3.5703-15.375 0.87891-18.906-5.7031-1.8906-3.5273-2.1914-7.5469-0.83984-11.316s4.1406-6.6836 7.8438-8.2031l20.738-8.5039c6.6562-2.7305 11.871-8.1797 14.301-14.953 2.4297-6.7695 1.8711-14.293-1.5312-20.629l-36.422-67.863c-7.1875-13.387-7.7656-29.027-1.5898-42.914l42.977-96.617c3.8398-8.6289 12.426-14.207 21.875-14.207 3.2695 0 6.4609 0.66406 9.4883 1.9766 11.93 5.1641 17.527 18.68 12.738 30.766l-35.672 90.059c-5.6289 14.219-4.0234 34.148 4.7695 59.23 6.2383 17.801 23.18 29.762 42.152 29.762 7.332 0 14.648-1.8477 21.164-5.3438l238.62-128.06c6.9258-3.7148 14.668-11.887 12.242-29.703-1.8828-13.824-13.887-24.246-27.926-24.246-2.3164 0-4.6406 0.28906-6.9062 0.85547l-112.23 28.145c-1.9805 0.49609-4.0156 0.75-6.0469 0.75-9.1602 0-17.547-5.0195-21.883-13.098l-60.836-113.35c-4.5898-8.5547-6.2539-17.719-4.9453-27.242 1.3906-10.129 11.531-17.316 21.66-15.102l72.992 15.934c13.164 2.8711 23.594 12.688 27.211 25.621 1.9141 6.8438 3.6406 13.52 5.1328 19.844 3.8008 16.137 17.363 28.324 33.75 30.32l42.551 5.1875c31.879 3.8867 57.77 27.23 64.422 58.09 5.9102 27.414-0.43359 46.328-18.848 56.211z"/>
</svg>