<svg width="769" height="108" viewBox="0 0 769 108" fill="none" xmlns="http://www.w3.org/2000/svg">
<path d="M39.7257 3.22392C40.4632 1.28311 42.3234 7.7981e-06 44.3996 7.74247e-06L94.4277 6.40202e-06C98.0016 6.30626e-06 100.422 3.64103 99.0376 6.93617L92.7376 21.9362C91.9579 23.7924 90.141 25 88.1277 25L61.4508 25L38.6996 25C35.1993 25 32.7823 21.496 34.0257 18.2239L39.7257 3.22392Z" fill="white"/>
<path d="M150.194 28.1431C150.953 26.2448 152.791 25 154.836 25L159.066 25C162.603 25 165.022 28.5726 163.708 31.857L157.708 46.857C156.949 48.7553 155.11 50 153.066 50L148.836 50C145.299 50 142.88 46.4274 144.194 43.1431L150.194 28.1431Z" fill="white"/>
<path d="M18.6576 54.0461C19.4416 52.1993 21.2537 51 23.26 51L72.3305 51C75.9298 51 78.3501 54.6886 76.9172 57.9905L58.2569 100.99C57.4639 102.818 55.662 104 53.6701 104L5.00534 104C1.42311 104 -0.996939 100.344 0.402898 97.0461L18.6576 54.0461Z" fill="white"/>
<path d="M90.1368 27.9863C90.9353 26.1715 92.7307 25 94.7134 25L113.788 25C117.398 25 119.819 28.7092 118.365 32.0137L111.765 47.0137C110.966 48.8285 109.171 50 107.188 50L88.1134 50C84.5031 50 82.0828 46.2909 83.5368 42.9863L90.1368 27.9863Z" fill="white"/>
<path d="M130.194 3.14304C130.953 1.24475 132.791 -3.72324e-07 134.836 -2.59794e-07L154.066 7.98596e-07C157.603 9.93289e-07 160.022 3.57263 158.708 6.85695L152.708 21.857C151.949 23.7553 150.11 25 148.066 25L128.836 25C125.299 25 122.88 21.4274 124.194 18.143L130.194 3.14304Z" fill="white"/>
<path d="M109.194 53.1431C109.953 51.2448 111.791 50 113.836 50L133.066 50C136.603 50 139.022 53.5726 137.708 56.857L131.708 71.857C130.949 73.7553 129.11 75 127.066 75L107.836 75C104.299 75 101.88 71.4274 103.194 68.1431L109.194 53.1431Z" fill="white"/>
<path d="M186.171 106C185.204 106 184.431 105.662 183.851 104.985C183.271 104.308 183.077 103.438 183.271 102.375L203.281 8.12501C203.474 7.06167 204.006 6.19167 204.876 5.515C205.746 4.83834 206.664 4.5 207.631 4.5H245.476C251.276 4.5 256.496 5.17667 261.136 6.53C265.776 7.88333 269.594 9.96167 272.591 12.765C275.684 15.4717 277.811 18.9033 278.971 23.06C280.131 27.12 280.131 31.8567 278.971 37.27C276.651 48.29 271.817 56.4583 264.471 61.775C257.221 66.995 247.554 69.605 235.471 69.605H214.011L207.051 102.375C206.857 103.438 206.326 104.308 205.456 104.985C204.682 105.662 203.764 106 202.701 106H186.171ZM217.491 51.625H236.196C240.836 51.625 244.896 50.4167 248.376 48C251.952 45.5833 254.272 41.9583 255.336 37.125C255.916 34.225 256.012 31.7117 255.626 29.585C255.336 27.3617 254.224 25.67 252.291 24.51C250.357 23.2533 247.312 22.625 243.156 22.625H223.726L217.491 51.625ZM306.661 107.45C300.668 107.45 295.69 106.193 291.726 103.68C287.763 101.07 285.056 97.3483 283.606 92.515C282.156 87.585 282.205 81.64 283.751 74.68L292.306 34.225C292.5 33.1617 292.983 32.2917 293.756 31.615C294.626 30.9383 295.593 30.6 296.656 30.6H312.026C312.993 30.6 313.718 30.9383 314.201 31.615C314.781 32.2917 314.975 33.1617 314.781 34.225L306.371 73.81C305.598 77.3867 305.356 80.3833 305.646 82.8C305.936 85.2167 306.951 87.0533 308.691 88.31C310.431 89.47 312.993 90.05 316.376 90.05C321.016 90.05 325.076 88.6483 328.556 85.845C332.036 82.945 334.308 78.9333 335.371 73.81L343.781 34.225C343.975 33.1617 344.506 32.2917 345.376 31.615C346.246 30.9383 347.165 30.6 348.131 30.6H363.501C364.565 30.6 365.338 30.9383 365.821 31.615C366.305 32.2917 366.45 33.1617 366.256 34.225L351.756 102.375C351.563 103.438 351.08 104.308 350.306 104.985C349.533 105.662 348.615 106 347.551 106H333.341C332.278 106 331.456 105.662 330.876 104.985C330.393 104.308 330.248 103.438 330.441 102.375L331.601 96.72C329.475 98.9433 327.251 100.877 324.931 102.52C322.708 104.163 320.146 105.372 317.246 106.145C314.443 107.015 310.915 107.45 306.661 107.45ZM372.906 106C371.939 106 371.166 105.662 370.586 104.985C370.006 104.308 369.813 103.438 370.006 102.375L390.451 6.675C390.644 5.61167 391.128 4.74167 391.901 4.06501C392.771 3.38834 393.689 3.05 394.656 3.05H409.156C410.219 3.05 410.993 3.38834 411.476 4.06501C412.056 4.74167 412.249 5.61167 412.056 6.675L391.611 102.375C391.418 103.438 390.934 104.308 390.161 104.985C389.388 105.662 388.469 106 387.406 106H372.906ZM412.979 106C412.012 106 411.239 105.662 410.659 104.985C410.079 104.308 409.886 103.438 410.079 102.375L430.524 6.675C430.717 5.61167 431.201 4.74167 431.974 4.06501C432.844 3.38834 433.762 3.05 434.729 3.05H449.229C450.292 3.05 451.066 3.38834 451.549 4.06501C452.129 4.74167 452.322 5.61167 452.129 6.675L431.684 102.375C431.491 103.438 431.007 104.308 430.234 104.985C429.461 105.662 428.542 106 427.479 106H412.979ZM487.216 106C486.249 106 485.476 105.662 484.896 104.985C484.316 104.308 484.122 103.438 484.316 102.375L504.326 8.12501C504.519 7.06167 505.051 6.19167 505.921 5.515C506.791 4.83834 507.709 4.5 508.676 4.5H546.521C552.321 4.5 557.541 5.17667 562.181 6.53C566.821 7.88333 570.639 9.96167 573.636 12.765C576.729 15.4717 578.856 18.9033 580.016 23.06C581.176 27.12 581.176 31.8567 580.016 37.27C577.696 48.29 572.862 56.4583 565.516 61.775C558.266 66.995 548.599 69.605 536.516 69.605H515.056L508.096 102.375C507.902 103.438 507.371 104.308 506.501 104.985C505.727 105.662 504.809 106 503.746 106H487.216ZM518.536 51.625H537.241C541.881 51.625 545.941 50.4167 549.421 48C552.997 45.5833 555.317 41.9583 556.381 37.125C556.961 34.225 557.057 31.7117 556.671 29.585C556.381 27.3617 555.269 25.67 553.336 24.51C551.402 23.2533 548.357 22.625 544.201 22.625H524.771L518.536 51.625ZM582.476 106C581.509 106 580.736 105.662 580.156 104.985C579.576 104.308 579.383 103.438 579.576 102.375L594.076 34.225C594.27 33.2583 594.801 32.4367 595.671 31.76C596.541 30.9867 597.459 30.6 598.426 30.6H612.636C613.603 30.6 614.328 30.9867 614.811 31.76C615.391 32.4367 615.585 33.2583 615.391 34.225L614.231 40.025C616.551 37.125 619.451 34.8533 622.931 33.21C626.508 31.47 630.858 30.6 635.981 30.6H643.666C644.633 30.6 645.358 30.9383 645.841 31.615C646.421 32.2917 646.615 33.1617 646.421 34.225L643.666 46.695C643.473 47.7583 642.941 48.6283 642.071 49.305C641.298 49.9817 640.428 50.32 639.461 50.32H626.846C622.496 50.32 618.871 51.5283 615.971 53.945C613.168 56.265 611.283 59.6 610.316 63.95L602.051 102.375C601.858 103.438 601.326 104.308 600.456 104.985C599.683 105.662 598.764 106 597.701 106H582.476ZM645.772 106C644.805 106 644.032 105.662 643.452 104.985C642.872 104.308 642.679 103.438 642.872 102.375L657.372 34.225C657.565 33.1617 658.097 32.2917 658.967 31.615C659.837 30.9383 660.755 30.6 661.722 30.6H676.222C677.285 30.6 678.059 30.9383 678.542 31.615C679.025 32.2917 679.17 33.1617 678.977 34.225L664.477 102.375C664.284 103.438 663.8 104.308 663.027 104.985C662.254 105.662 661.335 106 660.272 106H645.772ZM663.897 19C662.834 19 662.012 18.6617 661.432 17.985C660.949 17.3083 660.804 16.4383 660.997 15.375L663.462 3.775C663.655 2.71167 664.139 1.84167 664.912 1.165C665.782 0.391671 666.749 0.00500673 667.812 0.00500673H683.037C684.1 0.00500673 684.874 0.391671 685.357 1.165C685.937 1.84167 686.13 2.71167 685.937 3.775L683.327 15.375C683.23 16.4383 682.747 17.3083 681.877 17.985C681.007 18.6617 680.089 19 679.122 19H663.897ZM679.179 106C677.729 106 676.81 105.372 676.424 104.115C676.037 102.858 676.279 101.747 677.149 100.78L709.339 66.705L693.389 35.53C692.905 34.4667 693.002 33.4033 693.679 32.34C694.355 31.18 695.322 30.6 696.579 30.6H711.079C712.239 30.6 713.06 30.89 713.544 31.47C714.124 32.05 714.559 32.5817 714.849 33.065L725.579 53.22L745.009 33.065C745.492 32.5817 746.072 32.05 746.749 31.47C747.522 30.89 748.634 30.6 750.084 30.6H765.454C766.807 30.6 767.677 31.2283 768.064 32.485C768.547 33.7417 768.305 34.8533 767.339 35.82L736.454 68.59L752.839 101.07C753.419 102.133 753.419 103.245 752.839 104.405C752.355 105.468 751.34 106 749.794 106H735.004C733.844 106 732.974 105.758 732.394 105.275C731.91 104.695 731.524 104.163 731.234 103.68L720.069 82.655L699.769 103.68C699.382 104.067 698.85 104.55 698.174 105.13C697.497 105.71 696.434 106 694.984 106H679.179Z" fill="white"/>
</svg>
