<svg width="165" height="104" viewBox="0 0 165 104" fill="none" xmlns="http://www.w3.org/2000/svg">
<path d="M39.7257 3.22392C40.4632 1.28311 42.3234 7.7981e-06 44.3996 7.74247e-06L94.4277 6.40202e-06C98.0016 6.30626e-06 100.422 3.64103 99.0376 6.93617L92.7376 21.9362C91.9579 23.7924 90.141 25 88.1277 25L61.4508 25L38.6996 25C35.1993 25 32.7823 21.496 34.0257 18.2239L39.7257 3.22392Z" fill="white"/>
<path d="M150.194 28.1431C150.953 26.2448 152.791 25 154.836 25L159.066 25C162.603 25 165.022 28.5726 163.708 31.857L157.708 46.857C156.949 48.7553 155.11 50 153.066 50L148.836 50C145.299 50 142.88 46.4274 144.194 43.1431L150.194 28.1431Z" fill="white"/>
<path d="M18.6576 54.0461C19.4416 52.1993 21.2537 51 23.26 51L72.3305 51C75.9298 51 78.3501 54.6886 76.9172 57.9905L58.2569 100.99C57.4639 102.818 55.662 104 53.6701 104L5.00534 104C1.42311 104 -0.996939 100.344 0.402898 97.0461L18.6576 54.0461Z" fill="white"/>
<path d="M90.1368 27.9863C90.9353 26.1715 92.7307 25 94.7134 25L113.788 25C117.398 25 119.819 28.7092 118.365 32.0137L111.765 47.0137C110.966 48.8285 109.171 50 107.188 50L88.1134 50C84.5031 50 82.0828 46.2909 83.5368 42.9863L90.1368 27.9863Z" fill="white"/>
<path d="M130.194 3.14304C130.953 1.24475 132.791 -3.72324e-07 134.836 -2.59794e-07L154.066 7.98596e-07C157.603 9.93289e-07 160.022 3.57263 158.708 6.85695L152.708 21.857C151.949 23.7553 150.11 25 148.066 25L128.836 25C125.299 25 122.88 21.4274 124.194 18.143L130.194 3.14304Z" fill="white"/>
<path d="M109.194 53.1431C109.953 51.2448 111.791 50 113.836 50L133.066 50C136.603 50 139.022 53.5726 137.708 56.857L131.708 71.857C130.949 73.7553 129.11 75 127.066 75L107.836 75C104.299 75 101.88 71.4274 103.194 68.1431L109.194 53.1431Z" fill="white"/>
</svg>
