<svg width="586" height="108" viewBox="0 0 586 108" fill="none" xmlns="http://www.w3.org/2000/svg">
<path d="M3.19 105.995C2.22333 105.995 1.45 105.657 0.870001 104.98C0.290001 104.303 0.096668 103.433 0.290001 102.37L20.3 8.12C20.4933 7.05666 21.025 6.18666 21.895 5.51C22.765 4.83333 23.6833 4.495 24.65 4.495H62.495C68.295 4.495 73.515 5.17166 78.155 6.525C82.795 7.87833 86.6133 9.95666 89.61 12.76C92.7033 15.4667 94.83 18.8983 95.99 23.055C97.15 27.115 97.15 31.8517 95.99 37.265C93.67 48.285 88.8367 56.4533 81.49 61.77C74.24 66.99 64.5733 69.6 52.49 69.6H31.03L24.07 102.37C23.8767 103.433 23.345 104.303 22.475 104.98C21.7017 105.657 20.7833 105.995 19.72 105.995H3.19ZM34.51 51.62H53.215C57.855 51.62 61.915 50.4117 65.395 47.995C68.9717 45.5783 71.2917 41.9533 72.355 37.12C72.935 34.22 73.0317 31.7067 72.645 29.58C72.355 27.3567 71.2433 25.665 69.31 24.505C67.3767 23.2483 64.3317 22.62 60.175 22.62H40.745L34.51 51.62ZM123.68 107.445C117.687 107.445 112.709 106.188 108.745 103.675C104.782 101.065 102.075 97.3433 100.625 92.51C99.1755 87.58 99.2238 81.635 100.77 74.675L109.325 34.22C109.519 33.1567 110.002 32.2867 110.775 31.61C111.645 30.9333 112.612 30.595 113.675 30.595H129.045C130.012 30.595 130.737 30.9333 131.22 31.61C131.8 32.2867 131.994 33.1567 131.8 34.22L123.39 73.805C122.617 77.3817 122.375 80.3783 122.665 82.795C122.955 85.2117 123.97 87.0483 125.71 88.305C127.45 89.465 130.012 90.045 133.395 90.045C138.035 90.045 142.095 88.6433 145.575 85.84C149.055 82.94 151.327 78.9283 152.39 73.805L160.8 34.22C160.994 33.1567 161.525 32.2867 162.395 31.61C163.265 30.9333 164.184 30.595 165.15 30.595H180.52C181.584 30.595 182.357 30.9333 182.84 31.61C183.324 32.2867 183.469 33.1567 183.275 34.22L168.775 102.37C168.582 103.433 168.099 104.303 167.325 104.98C166.552 105.657 165.634 105.995 164.57 105.995H150.36C149.297 105.995 148.475 105.657 147.895 104.98C147.412 104.303 147.267 103.433 147.46 102.37L148.62 96.715C146.494 98.9383 144.27 100.872 141.95 102.515C139.727 104.158 137.165 105.367 134.265 106.14C131.462 107.01 127.934 107.445 123.68 107.445ZM189.925 105.995C188.958 105.995 188.185 105.657 187.605 104.98C187.025 104.303 186.832 103.433 187.025 102.37L207.47 6.66999C207.663 5.60666 208.147 4.73667 208.92 4.06C209.79 3.38333 210.708 3.045 211.675 3.045H226.175C227.238 3.045 228.012 3.38333 228.495 4.06C229.075 4.73667 229.268 5.60666 229.075 6.66999L208.63 102.37C208.437 103.433 207.953 104.303 207.18 104.98C206.407 105.657 205.488 105.995 204.425 105.995H189.925ZM229.998 105.995C229.032 105.995 228.258 105.657 227.678 104.98C227.098 104.303 226.905 103.433 227.098 102.37L247.543 6.66999C247.737 5.60666 248.22 4.73667 248.993 4.06C249.863 3.38333 250.782 3.045 251.748 3.045H266.248C267.312 3.045 268.085 3.38333 268.568 4.06C269.148 4.73667 269.342 5.60666 269.148 6.66999L248.703 102.37C248.51 103.433 248.027 104.303 247.253 104.98C246.48 105.657 245.562 105.995 244.498 105.995H229.998ZM304.235 105.995C303.268 105.995 302.495 105.657 301.915 104.98C301.335 104.303 301.142 103.433 301.335 102.37L321.345 8.12C321.538 7.05666 322.07 6.18666 322.94 5.51C323.81 4.83333 324.728 4.495 325.695 4.495H363.54C369.34 4.495 374.56 5.17166 379.2 6.525C383.84 7.87833 387.658 9.95666 390.655 12.76C393.748 15.4667 395.875 18.8983 397.035 23.055C398.195 27.115 398.195 31.8517 397.035 37.265C394.715 48.285 389.882 56.4533 382.535 61.77C375.285 66.99 365.618 69.6 353.535 69.6H332.075L325.115 102.37C324.922 103.433 324.39 104.303 323.52 104.98C322.747 105.657 321.828 105.995 320.765 105.995H304.235ZM335.555 51.62H354.26C358.9 51.62 362.96 50.4117 366.44 47.995C370.017 45.5783 372.337 41.9533 373.4 37.12C373.98 34.22 374.077 31.7067 373.69 29.58C373.4 27.3567 372.288 25.665 370.355 24.505C368.422 23.2483 365.377 22.62 361.22 22.62H341.79L335.555 51.62ZM399.495 105.995C398.529 105.995 397.755 105.657 397.175 104.98C396.595 104.303 396.402 103.433 396.595 102.37L411.095 34.22C411.289 33.2533 411.82 32.4317 412.69 31.755C413.56 30.9817 414.479 30.595 415.445 30.595H429.655C430.622 30.595 431.347 30.9817 431.83 31.755C432.41 32.4317 432.604 33.2533 432.41 34.22L431.25 40.02C433.57 37.12 436.47 34.8483 439.95 33.205C443.527 31.465 447.877 30.595 453 30.595H460.685C461.652 30.595 462.377 30.9333 462.86 31.61C463.44 32.2867 463.634 33.1567 463.44 34.22L460.685 46.69C460.492 47.7533 459.96 48.6233 459.09 49.3C458.317 49.9767 457.447 50.315 456.48 50.315H443.865C439.515 50.315 435.89 51.5233 432.99 53.94C430.187 56.26 428.302 59.595 427.335 63.945L419.07 102.37C418.877 103.433 418.345 104.303 417.475 104.98C416.702 105.657 415.784 105.995 414.72 105.995H399.495ZM462.791 105.995C461.825 105.995 461.051 105.657 460.471 104.98C459.891 104.303 459.698 103.433 459.891 102.37L474.391 34.22C474.585 33.1567 475.116 32.2867 475.986 31.61C476.856 30.9333 477.775 30.595 478.741 30.595H493.241C494.305 30.595 495.078 30.9333 495.561 31.61C496.045 32.2867 496.19 33.1567 495.996 34.22L481.496 102.37C481.303 103.433 480.82 104.303 480.046 104.98C479.273 105.657 478.355 105.995 477.291 105.995H462.791ZM480.916 18.995C479.853 18.995 479.031 18.6567 478.451 17.98C477.968 17.3033 477.823 16.4333 478.016 15.37L480.481 3.77C480.675 2.70667 481.158 1.83667 481.931 1.16C482.801 0.386666 483.768 1.84774e-06 484.831 1.84774e-06H500.056C501.12 1.84774e-06 501.893 0.386666 502.376 1.16C502.956 1.83667 503.15 2.70667 502.956 3.77L500.346 15.37C500.25 16.4333 499.766 17.3033 498.896 17.98C498.026 18.6567 497.108 18.995 496.141 18.995H480.916ZM496.198 105.995C494.748 105.995 493.83 105.367 493.443 104.11C493.056 102.853 493.298 101.742 494.168 100.775L526.358 66.7L510.408 35.525C509.925 34.4617 510.021 33.3983 510.698 32.335C511.375 31.175 512.341 30.595 513.598 30.595H528.098C529.258 30.595 530.08 30.885 530.563 31.465C531.143 32.045 531.578 32.5767 531.868 33.06L542.598 53.215L562.028 33.06C562.511 32.5767 563.091 32.045 563.768 31.465C564.541 30.885 565.653 30.595 567.103 30.595H582.473C583.826 30.595 584.696 31.2233 585.083 32.48C585.566 33.7367 585.325 34.8483 584.358 35.815L553.473 68.585L569.858 101.065C570.438 102.128 570.438 103.24 569.858 104.4C569.375 105.463 568.36 105.995 566.813 105.995H552.023C550.863 105.995 549.993 105.753 549.413 105.27C548.93 104.69 548.543 104.158 548.253 103.675L537.088 82.65L516.788 103.675C516.401 104.062 515.87 104.545 515.193 105.125C514.516 105.705 513.453 105.995 512.003 105.995H496.198Z" fill="white"/>
</svg>
